<svg xmlns="http://www.w3.org/2000/svg" viewBox="0 0 384.91 84.66"><defs><style>.cls-1,.cls-3{fill:#ffcd05;}.cls-2{fill:none;stroke:#ffcd05;stroke-miterlimit:10;stroke-width:0.5px;}.cls-3{font-size:12.7px;font-family:Impact, Impact;letter-spacing:0.5em;}.cls-4{letter-spacing:0.49em;}.cls-5{letter-spacing:0.5em;}.cls-6{font-size:47.01px;fill:#fff;letter-spacing:0.07em;}.cls-6,.cls-7{font-family:DINAlternate-Bold, DIN Alternate;font-weight:700;}.cls-7{font-size:15.25px;letter-spacing:0.9em;}.cls-7,.cls-8{fill:#ed2024;}.cls-8{font-size:48.66px;font-family:PlantagenetCherokee, Plantagenet Cherokee;}</style></defs><title>logo</title><g id="Layer_2" data-name="Layer 2"><g id="Layer_1-2" data-name="Layer 1"><path class="cls-1" d="M94,26.32c.76.42,4.61-1.29,4.57-1.36l0,0c-1-1.47-2.57-2.9-4.45-2.51C92.68,22.72,93,25.73,94,26.32Z"/><path class="cls-1" d="M136.11,37.77A9.65,9.65,0,0,0,136,36.5a10.42,10.42,0,0,0-20.43,4.12,11.46,11.46,0,0,0,.67,2.12,10.35,10.35,0,0,0,19.93-4.06C136.14,38.38,136.13,38.08,136.11,37.77Zm-10.38,8.39a7.6,7.6,0,1,1,7.6-7.6A7.6,7.6,0,0,1,125.73,46.16Z"/><path class="cls-1" d="M136.13,39.47a9,9,0,0,0,0-.91C136.13,38.87,136.14,39.17,136.13,39.47Z"/><path class="cls-1" d="M136,37.29a9.66,9.66,0,0,1,.15,1.27A9.45,9.45,0,0,0,136,37.29Z"/><path class="cls-1" d="M136.09,40.6c0-.35,0-.73,0-1.12A10.38,10.38,0,0,1,136.09,40.6Z"/><path class="cls-1" d="M116.2,43.53a11.46,11.46,0,0,1-.67-2.12A10.38,10.38,0,0,0,116.2,43.53Z"/><path class="cls-1" d="M64.22,32.43a11,11,0,0,0-.42,2.43,13.19,13.19,0,0,0,.07,2.53,10.06,10.06,0,0,0,.2,1.25,8.82,8.82,0,0,0,.31,1.22,9.28,9.28,0,0,0,.4,1.19c.16.39.29.79.48,1.16l.56,1.13c.18.38.44.72.65,1.07a19.82,19.82,0,0,0,1.47,2,11.72,11.72,0,0,0,.83.95l.85.92,1.71,1.57,17.5-3.63,8.87-1.74c2.85-.55,5.7-1.14,8.55-1.66,0-1.51,0-3,0-4.51l-.17-2.41-.35-2.38-.59-2.33-.45-1.12c-.16-.37-.28-.75-.47-1.11l-.62-1c-.22-.34-.4-.7-.65-1l-1.58-1.84L64.29,32.6Z"/><path class="cls-1" d="M142.29,35.08a3.23,3.23,0,0,1,.18-2.84c.72-1.7,1.37-4.09-1.06-4.55-1.57-.3-4.33,1-4.58-1.6-.06-.6,0-1.12,0-1.58a.9.9,0,0,0-.26.37,11,11,0,0,0-.11-1.2,2.16,2.16,0,0,0-.75-.49,6.42,6.42,0,0,0-.78-.25c-.28-.07-.6-.1-.9-.14-.75-.1-1.62-.16-2.56-.19-1.4,0-2.8.1-3.93.09-1.52,0-3,0-4.57.08l-.35,0c-1.19.05-2.38.14-3.57.24-3.86.36-9.48,1.11-9.48,1.11l1.53-1.63.61-.66h0c4.78-5.07,16-16.93,17.93-18.22L132.66,3l-.14-.71L129,3,109.06,21.85l-1.13-.2h0c0,.05-5.35-1.6-11.22-2.89-4-.87-14.64-2.64-14.64-2.64l-.08.09.08-.09a45,45,0,0,0-9.31.71c-2.67.37-5.32.91-8,1.5-4.36,1-8.74,2.47-13,3.84A46,46,0,0,0,41,27c-2.52,1.6-4.76,3.58-7.27,5.18a34.14,34.14,0,0,1-7.54,3.6c-2.54.84-5.27,1.2-7.73,2.22-2.06.84-1.58,2-.81,3.65a7,7,0,0,1,.49,1.48c1.94,0,4.33,3.51,5.17,5.46-.4.86-3.92.81-5.13.77,0,.06,0,.11-.06.17a2.4,2.4,0,0,1-.34.52c-2.15,2.67.35,4.33,1.35,7,.39,1.05.9,2.07,1.26,3.13,1.12-.07,12.56-.69,12.56-.7a14.75,14.75,0,0,1,1.28-7.36c.22-.45.45-.88.69-1.29l.16-.26a13,13,0,0,1,.78-1.14l.06-.07a12.11,12.11,0,0,1,.85-1l.14-.14a10.21,10.21,0,0,1,1-.87l0,0h0a10.15,10.15,0,0,1,6.17-2.05,10.29,10.29,0,0,1,2.29.17l.39.05.48.11c.32.07.62.14.92.23h0l.23.08c.24.08.47.16.69.25l.12.06a9.35,9.35,0,0,1,2.4,1.44c2.76,2.26,4.2,5.88,5.18,9.58L115.4,45.46a13.47,13.47,0,0,1-.1-10.18c2.2-5.93,8.6-9.68,15.52-6.24a9.89,9.89,0,0,1,3.71,3.1,15.61,15.61,0,0,1,2.7,8c1.07-.07,5.52-1,5.89-1.34C144.28,37.67,142.77,36.18,142.29,35.08Zm-109.06,11-3.71.75a1.14,1.14,0,0,1-1.26-1l-.35-1.72a1.15,1.15,0,0,1,.78-1.4L32.4,42a1.14,1.14,0,0,1,1.27,1L34,44.72A1.14,1.14,0,0,1,33.24,46.12Zm7.37-9.36s-3.7-1.41-1.1-4.13C41.92,30.22,46.56,25.28,60,21.1c-.5,1.08,3.14,10.09,3.69,11.42C61.06,33,40.6,36.76,40.6,36.76Zm66.15,6.83c-2.94.66-5.9,1.24-8.85,1.85l-8.85,1.83L71.31,50.76l-.22,0L71,50.66l-1.86-1.8-.85-1a11.66,11.66,0,0,1-.82-1A20.82,20.82,0,0,1,66,44.74c-.21-.38-.46-.73-.64-1.13l-.55-1.17c-.18-.39-.3-.81-.45-1.22A8.91,8.91,0,0,1,64,40a9.09,9.09,0,0,1-.25-1.27,9.87,9.87,0,0,1-.14-1.28,12.08,12.08,0,0,1,.63-5C63.68,31.12,60,22,60.53,21a45.76,45.76,0,0,1,20.84-2.86,60.26,60.26,0,0,1,20,7l1.71,1.74c.26.31.47.67.7,1l.69,1c.21.35.35.74.53,1.11l.52,1.12.72,2.36.43,2.42.24,2.44c.09,1.63.15,3.26.17,4.88v.32Zm-.93-19.39c-1.59.68-2.58.07-4-.52a123.37,123.37,0,0,0-17.63-6.1c-1.9-.32-2.27-.78-2.26-1.09.95.14,8.2,1,14.65,2.54,5.79,1.36,11.15,3.13,11.14,3.16A4.19,4.19,0,0,1,105.82,24.2Z"/><path class="cls-1" d="M137,40.16s.09,0,.23,0a15.61,15.61,0,0,0-2.7-8A15.48,15.48,0,0,1,137,40.16Z"/><path class="cls-1" d="M115.31,35.28a13.47,13.47,0,0,0,.1,10.18l.28-.06A13.37,13.37,0,0,1,115.31,35.28Z"/><path class="cls-1" d="M118.1,23.1c-2.86.26-5.74.61-8.58,1.06,0,0,5.62-.75,9.48-1.11Z"/><path class="cls-1" d="M111.05,22.52l.62-.66h0Z"/><path class="cls-1" d="M131.41,22.62c.94,0,1.81.09,2.56.19A16.65,16.65,0,0,0,131.41,22.62Z"/><path class="cls-1" d="M134,22.81c.3,0,.62.07.9.14C134.61,22.9,134.3,22.85,134,22.81Z"/><path class="cls-1" d="M136.78,24.51a1.39,1.39,0,0,0-.37-.82,11,11,0,0,1,.11,1.2A.9.9,0,0,1,136.78,24.51Z"/><path class="cls-1" d="M37.89,47.39l0,0h0Z"/><path class="cls-1" d="M48.17,45.88l.23.08-.23-.08Z"/><path class="cls-1" d="M51.61,47.7c2.7,2.25,3.92,5.84,4.9,9.64l.28-.06C55.81,53.57,54.37,50,51.61,47.7Z"/><path class="cls-1" d="M54.68,53.68A10.41,10.41,0,0,0,48.2,46l0-.09q-.46-.17-.93-.29c-.28-.08-.58-.11-.87-.16a14.32,14.32,0,0,0-2.29-.17A10.42,10.42,0,1,0,54.78,58,12.3,12.3,0,0,0,54.68,53.68ZM44.56,63.45a7.6,7.6,0,1,1,7.59-7.6A7.6,7.6,0,0,1,44.56,63.45Z"/><path class="cls-1" d="M44.09,45.32a14.34,14.34,0,0,1,2.29.17A10.29,10.29,0,0,0,44.09,45.32Z"/><path class="cls-1" d="M46.77,45.54l-.39-.05c.29.05.58.08.87.16Z"/><path class="cls-1" d="M64.24,32.36l0,.07h0S64.23,32.38,64.24,32.36Z"/><polygon class="cls-1" points="106.97 63.5 111.65 65.65 113.69 65.65 109.2 60.26 109.2 60.2 108.14 60.2 108.14 45.47 105.93 45.86 105.93 60.2 104.72 60.2 104.72 60.26 100.24 65.65 102.28 65.65 106.97 63.5"/><path class="cls-2" d="M136.65,24.48c2.31-1.77,1.1-3.74-10.7-3.05-10.66.5-14.88.63-14.88.63"/><text class="cls-3" transform="translate(161.99 80.46)">COMPL<tspan class="cls-4" x="66.05" y="0">E</tspan><tspan class="cls-5" x="77.51" y="0">TE CAR CARE</tspan></text><text class="cls-6" transform="translate(158.73 41.61)">TRIPLE</text><text class="cls-7" transform="translate(161.99 59.02) scale(0.97 1)">AUTOMOTIVE</text><text class="cls-8" transform="translate(339.12 40.77)">C</text><line class="cls-2" x1="365.4" y1="65.65" y2="65.65"/></g></g></svg>